# 3ds Max Wavefront OBJ Exporter v0.97b - (c)2007 guruware
# File Created: 22.09.2017 11:55:10

mtllib SM_FallenBranches02_lod1.mtl

#
# object SM_FallenBranches02_lod1
#

v  14.0400 0.0237 -26.6193
v  5.9027 7.2505 -37.5847
v  -19.1503 0.2667 43.2903
v  13.5496 8.5373 -21.9588
v  7.2814 -3.2054 -32.4988
v  -19.1999 0.7331 43.2785
v  -4.9562 1.7882 5.9224
v  0.9651 6.0707 4.7611
v  2.9010 0.3182 -9.1260
v  9.3617 3.9176 -7.5845
v  1.9221 9.5381 -16.6420
v  8.6515 1.5058 -13.2244
v  10.0502 -0.2912 -22.7974
v  -38.5471 -0.5753 0.9699
v  5.0263 6.1053 -15.2283
v  9.4408 -3.7186 -16.2021
v  -38.6219 -0.3796 0.7568
v  -14.8847 0.2118 -8.4769
v  -12.6351 4.4393 -8.7127
v  -4.2601 0.3105 -10.6920
v  -3.0621 4.8311 -9.5218
v  -2.1316 2.9057 -17.5189
v  -22.2221 12.6389 7.8272
v  -22.9453 17.0537 -1.5995
v  26.0163 -1.2004 21.2836
v  -19.5990 7.5282 4.6038
v  -21.6402 18.9603 5.9729
v  26.0499 -1.3663 21.0168
v  2.0440 7.1539 12.2672
v  -1.2909 3.6549 11.1467
v  -8.7385 10.5023 10.3434
v  -11.1323 5.9103 10.5523
v  -11.3842 9.8783 2.7691
v  32.5383 12.7378 -3.9275
v  37.8320 11.7288 6.5441
v  -25.3045 0.1459 -3.2563
v  30.5007 5.7093 -2.7749
v  33.5124 17.5905 1.3822
v  -25.2488 -0.1701 -3.0983
v  4.5773 6.7569 -0.8627
v  8.0682 3.0639 -3.2549
v  17.0772 10.1602 -1.8564
v  18.8980 6.1570 -5.5745
v  22.9630 5.6908 3.4505
# 44 vertices

vn 0.3560 0.8965 0.2639
vn 0.3560 0.8965 0.2639
vn 0.3560 0.8965 0.2639
vn -0.5901 0.7135 -0.3778
vn -0.5901 0.7135 -0.3778
vn -0.5901 0.7135 -0.3778
vn -0.7913 0.5180 -0.3249
vn -0.7913 0.5180 -0.3249
vn -0.7913 0.5180 -0.3249
vn -0.5997 0.7731 -0.2068
vn -0.5997 0.7731 -0.2068
vn -0.5997 0.7731 -0.2068
vn -0.7548 0.6128 -0.2339
vn -0.7548 0.6128 -0.2339
vn -0.7548 0.6128 -0.2339
vn 0.6249 0.7806 0.0147
vn 0.6249 0.7806 0.0147
vn 0.6249 0.7806 0.0147
vn 0.6249 0.7806 0.0147
vn -0.2182 0.9427 -0.2524
vn -0.2182 0.9427 -0.2524
vn -0.2182 0.9427 -0.2524
vn -0.2043 0.0542 -0.9774
vn -0.2043 0.0542 -0.9774
vn -0.2043 0.0542 -0.9774
vn -0.3211 -0.2085 -0.9238
vn -0.3211 -0.2085 -0.9238
vn -0.3211 -0.2085 -0.9238
vn -0.3620 0.1412 -0.9214
vn -0.3620 0.1412 -0.9214
vn -0.3620 0.1412 -0.9214
vn -0.3934 -0.0861 -0.9153
vn -0.3934 -0.0861 -0.9153
vn -0.3934 -0.0861 -0.9153
vn 0.1962 0.9642 -0.1783
vn 0.1962 0.9642 -0.1783
vn 0.1962 0.9642 -0.1783
vn 0.1962 0.9642 -0.1783
vn -0.0397 -0.8907 -0.4528
vn -0.0397 -0.8907 -0.4528
vn -0.0397 -0.8907 -0.4528
vn 0.2083 0.1126 -0.9716
vn 0.2083 0.1126 -0.9716
vn 0.2083 0.1126 -0.9716
vn 0.3773 0.3079 -0.8734
vn 0.3773 0.3079 -0.8734
vn 0.3773 0.3079 -0.8734
vn 0.3364 -0.0191 -0.9415
vn 0.3364 -0.0191 -0.9415
vn 0.3364 -0.0191 -0.9415
vn 0.4202 0.1815 -0.8891
vn 0.4202 0.1815 -0.8891
vn 0.4202 0.1815 -0.8891
vn -0.3924 -0.8355 -0.3847
vn -0.3924 -0.8355 -0.3847
vn -0.3924 -0.8355 -0.3847
vn -0.3924 -0.8355 -0.3847
vn 0.1283 -0.9858 -0.1087
vn 0.1283 -0.9858 -0.1087
vn 0.1283 -0.9858 -0.1087
vn 0.1821 -0.4075 0.8948
vn 0.1821 -0.4075 0.8948
vn 0.1821 -0.4075 0.8948
vn 0.0021 -0.1960 0.9806
vn 0.0021 -0.1960 0.9806
vn 0.0021 -0.1960 0.9806
vn 0.0533 -0.5070 0.8603
vn 0.0533 -0.5070 0.8603
vn 0.0533 -0.5070 0.8603
vn -0.0415 -0.3206 0.9463
vn -0.0415 -0.3206 0.9463
vn -0.0415 -0.3206 0.9463
vn 0.4269 -0.8630 -0.2702
vn 0.4269 -0.8630 -0.2702
vn 0.4269 -0.8630 -0.2702
vn 0.4269 -0.8630 -0.2702
# 76 vertex normals

vt 0.1861 1.0025 0.0000
vt 0.1417 0.9172 0.0000
vt 0.6699 0.9803 0.0000
vt 0.3882 1.0012 0.0000
vt 0.3116 0.9301 0.0000
vt 0.4040 0.9404 0.0000
vt 0.6699 0.9803 0.0000
vt 0.1861 1.0025 0.0000
vt 0.1417 0.9172 0.0000
vt 0.3079 1.0012 0.0000
vt 0.2728 0.9288 0.0000
vt 0.3079 1.0012 0.0000
vt 0.2728 0.9288 0.0000
vt 0.3882 1.0012 0.0000
vt 0.3116 0.9301 0.0000
vt 0.4040 0.9404 0.0000
vt 0.6699 0.9803 0.0000
vt 0.1861 1.0025 0.0000
vt 0.1417 0.9172 0.0000
vt 0.6699 0.9803 0.0000
vt 0.1861 1.0025 0.0000
vt 0.1417 0.9172 0.0000
vt 0.3079 1.0012 0.0000
vt 0.2728 0.9288 0.0000
vt 0.3882 1.0012 0.0000
vt 0.3116 0.9301 0.0000
vt 0.4040 0.9404 0.0000
vt 0.6699 0.9803 0.0000
vt 0.1861 1.0025 0.0000
vt 0.1417 0.9172 0.0000
vt 0.6699 0.9803 0.0000
vt 0.1861 1.0025 0.0000
vt 0.1417 0.9172 0.0000
vt 0.3079 1.0012 0.0000
vt 0.2728 0.9288 0.0000
vt 0.3882 1.0012 0.0000
vt 0.3116 0.9301 0.0000
vt 0.4040 0.9404 0.0000
vt 0.6699 0.9803 0.0000
vt 0.1861 1.0025 0.0000
vt 0.1417 0.9172 0.0000
vt 0.6699 0.9803 0.0000
vt 0.1861 1.0025 0.0000
vt 0.1417 0.9172 0.0000
# 44 texture coords

g SM_FallenBranches02_lod1
usemtl M_pine01_fo
s off
f 3/3/1 10/10/2 11/11/3 
f 8/4/4 9/5/5 7/6/6 
f 8/4/7 4/8/8 9/5/9 
f 6/7/10 8/4/11 7/6/12 
f 9/5/13 4/8/14 5/9/15 
f 10/10/16 1/1/17 2/2/18 11/11/19 
f 14/20/20 21/12/21 22/13/22 
f 19/14/23 20/15/24 18/16/25 
f 19/14/26 15/18/27 20/15/28 
f 17/17/29 19/14/30 18/16/31 
f 20/15/32 15/18/33 16/19/34 
f 21/12/35 12/21/36 13/22/37 22/13/38 
f 25/31/39 32/23/40 33/24/41 
f 30/25/42 31/26/43 29/27/44 
f 30/25/45 26/29/46 31/26/47 
f 28/28/48 30/25/49 29/27/50 
f 31/26/51 26/29/52 27/30/53 
f 32/23/54 23/32/55 24/33/56 33/24/57 
f 36/42/58 43/34/59 44/35/60 
f 41/36/61 42/37/62 40/38/63 
f 41/36/64 37/40/65 42/37/66 
f 39/39/67 41/36/68 40/38/69 
f 42/37/70 37/40/71 38/41/72 
f 43/34/73 34/43/74 35/44/75 44/35/76 
# 4 polygons - 20 triangles

