# 3ds Max Wavefront OBJ Exporter v0.97b - (c)2007 guruware
# File Created: 22.09.2017 11:52:58

mtllib SM_FallenBranches01.mtl

#
# object SM_FallenBranches01
#

v  -0.1604 0.2743 29.0851
v  -0.5411 0.6305 29.1336
v  -0.2041 1.0344 28.5760
v  0.1848 0.5357 28.6228
v  13.1730 2.9350 47.8948
v  6.4948 0.2607 37.0365
v  6.2211 0.5218 37.0679
v  6.4635 0.8067 36.6708
v  6.7425 0.4537 36.7009
v  0.6858 2.3003 44.7550
v  0.4978 2.5948 44.4846
v  0.8142 2.8543 44.5899
v  0.9782 2.4559 44.8911
v  -9.8845 2.7927 59.8934
v  -3.3579 1.7041 51.9129
v  -3.4921 1.9194 51.7176
v  -3.2657 2.1020 51.7943
v  -3.1470 1.8196 52.0096
v  -0.2735 -0.5225 -2.4985
v  -1.9736 0.7326 -0.7980
v  -0.2161 2.7699 -2.3497
v  1.5418 0.6818 -1.2317
v  10.6066 11.7026 64.0875
v  10.6957 11.9348 64.0754
v  10.8082 11.7643 63.9079
v  -0.7552 -0.2560 33.1234
v  -1.4295 0.2426 33.0585
v  -0.0691 0.2204 33.0241
v  -1.3285 0.5228 3.6668
v  -0.0690 -0.4085 3.7882
v  1.2123 0.4814 3.6026
v  1.0612 3.4664 46.2706
v  0.7363 2.5958 46.4262
v  1.7066 2.8112 46.3627
v  0.8605 1.9551 -1.7864
v  0.2725 1.8321 3.4017
v  -1.1349 2.3002 -1.1991
v  -0.7217 1.6514 3.4600
v  -0.8384 0.8953 32.9321
v  -0.1882 2.0019 39.6339
v  0.4297 2.6454 39.5083
v  0.8029 1.7483 39.6488
v  -0.7664 1.2081 21.8564
v  0.1274 0.5473 21.9424
v  1.0367 1.1787 21.8107
v  0.0170 2.0732 21.6889
v  4.8150 7.7097 55.6312
v  4.6564 7.1564 55.7707
v  5.1869 7.2996 55.4556
v  -0.3917 1.0164 9.1694
v  -0.6721 1.2758 8.6505
v  -0.3246 1.7781 8.6784
v  -0.0567 1.3760 9.2894
v  -17.6605 4.0540 23.7519
v  -9.5052 1.2496 14.2429
v  -9.7062 1.4411 13.8668
v  -9.4570 1.7969 13.8902
v  -9.2642 1.5131 14.3257
v  -4.5996 1.1923 12.3205
v  -4.8403 1.4177 11.8730
v  -4.5419 1.8468 11.8987
v  -4.3116 1.5039 12.4219
v  -0.1770 2.4498 7.9350
v  -23.6701 2.9483 31.2019
v  -24.7943 9.0553 33.5376
v  -0.0241 0.1214 7.7296
v  -18.4577 9.4878 25.4754
v  -12.2719 2.2798 18.2642
v  -19.9050 10.9730 21.9243
v  0.4578 1.4513 8.6978
v  -24.5393 4.6436 27.4889
v  -21.9321 4.9903 34.2890
v  -0.8405 1.4056 6.7486
v  -8.4644 2.8584 17.7292
v  -8.4203 1.9298 14.3908
v  -13.4569 3.3360 17.8163
v  -16.9334 3.4185 25.3946
v  -20.2722 -2.6179 22.6724
v  -5.5326 0.9607 11.7231
v  -4.1404 2.1937 12.3901
v  -15.6100 1.1038 23.4985
v  -13.6379 5.7708 19.6714
v  -12.9016 1.5515 18.4912
v  -6.6417 4.1061 14.0488
v  -6.0599 0.8301 13.4829
v  -19.4787 2.2688 23.7442
v  -20.1035 7.4271 25.7844
v  1.0334 1.7874 37.9181
v  5.0331 10.3519 66.9129
v  8.2331 15.5081 67.4411
v  -0.1064 -0.0047 38.3246
v  -0.8827 1.1680 28.2352
v  15.8753 0.8434 47.3741
v  16.0547 5.2841 49.8839
v  -0.4529 -0.4368 27.5369
v  10.0930 5.3436 44.7068
v  6.6501 0.3236 37.8421
v  7.1348 5.1581 45.8131
v  -0.0776 0.8260 27.5967
v  12.7485 0.9141 48.0992
v  17.6195 3.4146 46.8806
v  -1.4885 0.0031 28.3581
v  7.5886 1.7655 38.1107
v  6.1261 1.5832 35.1800
v  3.9266 0.1791 34.6337
v  7.0639 0.5216 40.1363
v  11.5469 1.5586 42.1104
v  5.0532 0.7502 37.7045
v  11.0577 -4.0817 42.8171
v  2.2323 -0.3586 32.0755
v  2.4149 1.0036 31.4263
v  10.7451 -0.1276 40.4223
v  6.8033 2.6912 39.8070
v  6.9949 -0.2862 38.1395
v  3.1408 2.0530 33.8487
v  3.5447 -0.1744 32.5768
v  10.6249 -0.2751 43.5306
v  10.8262 3.5757 45.4211
v  0.2265 2.4157 44.4200
v  -10.5370 3.6018 63.6292
v  -14.7973 2.4710 63.2516
v  1.5668 3.0500 44.9112
v  -11.5012 1.1754 57.3953
v  -4.4417 2.3980 53.9442
v  -10.9996 -1.4370 56.7292
v  0.5033 3.2992 44.5746
v  -10.0503 1.0834 62.5499
v  -12.7349 5.1065 63.0458
v  1.2108 1.9135 44.7123
v  -5.8564 2.9232 53.9169
v  -4.3149 3.4895 51.5958
v  -2.5100 2.2537 50.8507
v  -5.5039 1.4574 55.3930
v  -8.1175 3.4794 58.2065
v  -4.3070 1.3913 52.9268
v  -4.0123 2.6550 60.8376
v  -0.7743 2.4556 48.7924
v  -1.6135 2.9545 47.9077
v  -6.0541 3.8016 57.5750
v  -6.9486 1.4992 54.1361
v  -4.1769 2.4619 54.5450
v  -3.4387 2.1752 49.2088
v  -1.4228 3.0861 49.6231
v  -7.0083 2.0546 59.3979
v  -10.6136 1.2581 58.9251
v  -16.0461 4.4182 38.6799
v  1.2171 0.7885 23.6941
v  -15.5837 -2.6787 38.7839
v  12.1819 12.1605 60.4600
v  0.4219 3.8585 48.6110
v  15.6404 8.3580 57.9294
v  13.9027 -4.4085 25.0155
v  16.3020 3.8716 26.3306
v  -1.9040 1.6999 16.1105
v  1.9875 10.0340 63.9473
v  -2.3782 15.3117 61.5324
v  2.9714 4.1979 49.1436
v  -12.8025 2.0571 42.0529
v  1.2278 0.5863 23.7020
v  -17.4138 0.3636 36.9092
v  15.9518 -1.6146 22.1097
v  13.5596 0.3248 30.2682
v  -1.9732 1.5961 16.2061
# 163 vertices

vn 0.5636 0.6520 -0.5072
vn 0.5636 0.6520 -0.5072
vn 0.5636 0.6520 -0.5072
vn 0.5879 -0.7831 -0.2029
vn 0.5879 -0.7831 -0.2029
vn 0.5879 -0.7831 -0.2029
vn -0.6949 -0.5056 0.5113
vn -0.6949 -0.5056 0.5113
vn -0.6949 -0.5056 0.5113
vn -0.5158 0.8499 0.1079
vn -0.5158 0.8499 0.1079
vn -0.5158 0.8499 0.1079
vn 0.5713 0.6676 -0.4774
vn 0.5713 0.6676 -0.4774
vn 0.5713 0.6676 -0.4774
vn 0.5713 0.6676 -0.4774
vn 0.4072 -0.8399 -0.3588
vn 0.4072 -0.8399 -0.3588
vn 0.4072 -0.8399 -0.3588
vn 0.4072 -0.8399 -0.3588
vn -0.6816 -0.4849 0.5481
vn -0.6816 -0.4849 0.5481
vn -0.6816 -0.4849 0.5481
vn -0.6816 -0.4849 0.5481
vn -0.3254 0.9051 0.2736
vn -0.3254 0.9051 0.2736
vn -0.3254 0.9051 0.2736
vn -0.3254 0.9051 0.2736
vn 0.5871 0.7133 0.3829
vn 0.5871 0.7133 0.3829
vn 0.5871 0.7133 0.3829
vn 0.4655 -0.7646 0.4456
vn 0.4655 -0.7646 0.4456
vn 0.4655 -0.7646 0.4456
vn -0.6327 -0.6199 -0.4642
vn -0.6327 -0.6199 -0.4642
vn -0.6327 -0.6199 -0.4642
vn -0.3091 0.8752 -0.3721
vn -0.3091 0.8752 -0.3721
vn -0.3091 0.8752 -0.3721
vn 0.5783 0.7185 0.3863
vn 0.5783 0.7185 0.3863
vn 0.5783 0.7185 0.3863
vn 0.5783 0.7185 0.3863
vn 0.5643 -0.7907 0.2372
vn 0.5643 -0.7907 0.2372
vn 0.5643 -0.7907 0.2372
vn 0.5643 -0.7907 0.2372
vn -0.6623 -0.6077 -0.4383
vn -0.6623 -0.6077 -0.4383
vn -0.6623 -0.6077 -0.4383
vn -0.6623 -0.6077 -0.4383
vn -0.4109 0.8980 -0.1576
vn -0.4109 0.8980 -0.1576
vn -0.4109 0.8980 -0.1576
vn -0.4109 0.8980 -0.1576
vn 0.2479 0.9616 -0.1178
vn 0.2479 0.9616 -0.1178
vn 0.2479 0.9616 -0.1178
vn 0.8447 -0.5336 -0.0413
vn 0.8447 -0.5336 -0.0413
vn 0.8447 -0.5336 -0.0413
vn 0.8447 -0.5336 -0.0413
vn -0.2227 0.9671 -0.1231
vn -0.2227 0.9671 -0.1231
vn -0.2227 0.9671 -0.1231
vn 0.5803 0.8135 -0.0386
vn 0.5803 0.8135 -0.0386
vn 0.5803 0.8135 -0.0386
vn 0.5803 0.8135 -0.0386
vn 0.8578 -0.4928 -0.1459
vn 0.8578 -0.4928 -0.1459
vn 0.8578 -0.4928 -0.1459
vn 0.8578 -0.4928 -0.1459
vn -0.5729 -0.8153 -0.0843
vn -0.5729 -0.8153 -0.0843
vn -0.5729 -0.8153 -0.0843
vn -0.5602 0.8283 0.0001
vn -0.5602 0.8283 0.0001
vn -0.5602 0.8283 0.0001
vn -0.5602 0.8283 0.0001
vn 0.8192 -0.5734 -0.0118
vn 0.8192 -0.5734 -0.0118
vn 0.8192 -0.5734 -0.0118
vn 0.8192 -0.5734 -0.0118
vn 0.5968 0.8009 -0.0486
vn 0.5968 0.8009 -0.0486
vn 0.5968 0.8009 -0.0486
vn 0.5968 0.8009 -0.0486
vn -0.5736 0.8183 -0.0369
vn -0.5736 0.8183 -0.0369
vn -0.5736 0.8183 -0.0369
vn -0.5736 0.8183 -0.0369
vn 0.9122 -0.3529 -0.2082
vn 0.9122 -0.3529 -0.2082
vn 0.9122 -0.3529 -0.2082
vn 0.9122 -0.3529 -0.2082
vn -0.2961 0.8991 -0.3224
vn -0.2961 0.8991 -0.3224
vn -0.2961 0.8991 -0.3224
vn -0.2961 0.8991 -0.3224
vn -0.8347 -0.5427 -0.0939
vn -0.8347 -0.5427 -0.0939
vn -0.8347 -0.5427 -0.0939
vn -0.8347 -0.5427 -0.0939
vn -0.7540 -0.6569 0.0080
vn -0.7540 -0.6569 0.0080
vn -0.7540 -0.6569 0.0080
vn -0.7540 -0.6569 0.0080
vn -0.8355 -0.5230 0.1683
vn -0.8355 -0.5230 0.1683
vn -0.8355 -0.5230 0.1683
vn -0.8355 -0.5230 0.1683
vn -0.5960 -0.6100 0.5223
vn -0.5960 -0.6100 0.5223
vn -0.5960 -0.6100 0.5223
vn -0.5960 -0.6100 0.5223
vn 0.2219 -0.9609 -0.1657
vn 0.2219 -0.9609 -0.1657
vn 0.2219 -0.9609 -0.1657
vn 0.2219 -0.9609 -0.1657
vn 0.1796 -0.9836 0.0155
vn 0.1796 -0.9836 0.0155
vn 0.1796 -0.9836 0.0155
vn 0.8017 -0.2960 0.5193
vn 0.8017 -0.2960 0.5193
vn 0.8017 -0.2960 0.5193
vn -0.4818 -0.0312 0.8757
vn -0.4818 -0.0312 0.8757
vn -0.4818 -0.0312 0.8757
vn -0.5883 0.0371 0.8078
vn -0.5883 0.0371 0.8078
vn -0.5883 0.0371 0.8078
vn 0.6898 -0.0447 0.7226
vn 0.6898 -0.0447 0.7226
vn 0.6898 -0.0447 0.7226
vn -0.6858 0.2271 -0.6915
vn -0.6858 0.2271 -0.6915
vn -0.6858 0.2271 -0.6915
vn 0.4016 0.8539 -0.3311
vn 0.4016 0.8539 -0.3311
vn 0.4016 0.8539 -0.3311
vn 0.4016 0.8539 -0.3311
vn 0.7346 -0.6773 0.0406
vn 0.7346 -0.6773 0.0406
vn 0.7346 -0.6773 0.0406
vn 0.7346 -0.6773 0.0406
vn -0.7984 -0.5413 0.2638
vn -0.7984 -0.5413 0.2638
vn -0.7984 -0.5413 0.2638
vn -0.7984 -0.5413 0.2638
vn -0.5776 0.8088 -0.1105
vn -0.5776 0.8088 -0.1105
vn -0.5776 0.8088 -0.1105
vn 0.5848 0.8045 0.1040
vn 0.5848 0.8045 0.1040
vn 0.5848 0.8045 0.1040
vn 0.5848 0.8045 0.1040
vn -0.5689 0.8223 0.0142
vn -0.5689 0.8223 0.0142
vn -0.5689 0.8223 0.0142
vn -0.5689 0.8223 0.0142
vn -0.6453 -0.7531 -0.1280
vn -0.6453 -0.7531 -0.1280
vn -0.6453 -0.7531 -0.1280
vn -0.6453 -0.7531 -0.1280
vn 0.7398 -0.6727 -0.0142
vn 0.7398 -0.6727 -0.0142
vn 0.7398 -0.6727 -0.0142
vn 0.7398 -0.6727 -0.0142
vn 0.8423 -0.3455 -0.4138
vn 0.8423 -0.3455 -0.4138
vn 0.8423 -0.3455 -0.4138
vn 0.8423 -0.3455 -0.4138
vn -0.3926 0.8954 -0.2102
vn -0.3926 0.8954 -0.2102
vn -0.3926 0.8954 -0.2102
vn -0.3926 0.8954 -0.2102
vn -0.3864 -0.6864 0.6161
vn -0.3864 -0.6864 0.6161
vn -0.3864 -0.6864 0.6161
vn -0.3864 -0.6864 0.6161
vn 0.4928 0.8531 0.1711
vn 0.4928 0.8531 0.1711
vn 0.4928 0.8531 0.1711
vn 0.6198 -0.4753 0.6244
vn 0.6198 -0.4753 0.6244
vn 0.6198 -0.4753 0.6244
vn -0.5466 -0.7914 -0.2736
vn -0.5466 -0.7914 -0.2736
vn -0.5466 -0.7914 -0.2736
vn -0.4852 0.6333 -0.6029
vn -0.4852 0.6333 -0.6029
vn -0.4852 0.6333 -0.6029
vn 0.1586 0.9125 0.3770
vn 0.1586 0.9125 0.3770
vn 0.1586 0.9125 0.3770
vn 0.1586 0.9125 0.3770
vn 0.3599 -0.3063 0.8813
vn 0.3599 -0.3063 0.8813
vn 0.3599 -0.3063 0.8813
vn 0.3599 -0.3063 0.8813
vn -0.1855 -0.8580 -0.4789
vn -0.1855 -0.8580 -0.4789
vn -0.1855 -0.8580 -0.4789
vn -0.1855 -0.8580 -0.4789
vn -0.3032 0.5321 -0.7905
vn -0.3032 0.5321 -0.7905
vn -0.3032 0.5321 -0.7905
vn -0.3032 0.5321 -0.7905
vn 0.2711 0.9110 0.3108
vn 0.2711 0.9110 0.3108
vn 0.2711 0.9110 0.3108
vn 0.2711 0.9110 0.3108
vn 0.5461 -0.4204 0.7246
vn 0.5461 -0.4204 0.7246
vn 0.5461 -0.4204 0.7246
vn 0.5461 -0.4204 0.7246
vn -0.3294 -0.8490 -0.4131
vn -0.3294 -0.8490 -0.4131
vn -0.3294 -0.8490 -0.4131
vn -0.3294 -0.8490 -0.4131
vn -0.4497 0.6271 -0.6360
vn -0.4497 0.6271 -0.6360
vn -0.4497 0.6271 -0.6360
vn -0.4497 0.6271 -0.6360
vn -0.6299 0.1689 -0.7581
vn -0.6299 0.1689 -0.7581
vn -0.6299 0.1689 -0.7581
vn -0.6299 0.1689 -0.7581
vn 0.7458 0.6656 -0.0256
vn 0.7458 0.6656 -0.0256
vn 0.7458 0.6656 -0.0256
vn 0.0958 0.9949 0.0331
vn 0.0958 0.9949 0.0331
vn 0.0958 0.9949 0.0331
vn 0.0872 0.9600 -0.2659
vn 0.0872 0.9600 -0.2659
vn 0.0872 0.9600 -0.2659
vn -0.0549 0.9842 -0.1683
vn -0.0549 0.9842 -0.1683
vn -0.0549 0.9842 -0.1683
vn -0.0549 0.9842 -0.1683
vn 0.1776 0.9816 0.0708
vn 0.1776 0.9816 0.0708
vn 0.1776 0.9816 0.0708
vn 0.1312 0.9862 -0.1006
vn 0.1312 0.9862 -0.1006
vn 0.1312 0.9862 -0.1006
vn 0.5019 -0.7455 0.4386
vn 0.5019 -0.7455 0.4386
vn 0.5019 -0.7455 0.4386
vn 0.5019 -0.7455 0.4386
vn -0.5985 0.0804 -0.7971
vn -0.5985 0.0804 -0.7971
vn -0.5985 0.0804 -0.7971
vn -0.5985 0.0804 -0.7971
vn -0.6875 0.0098 -0.7261
vn -0.6875 0.0098 -0.7261
vn -0.6875 0.0098 -0.7261
vn -0.6875 0.0098 -0.7261
vn -0.8574 0.0652 -0.5105
vn -0.8574 0.0652 -0.5105
vn -0.8574 0.0652 -0.5105
vn -0.8574 0.0652 -0.5105
vn -0.8472 0.5298 -0.0396
vn -0.8472 0.5298 -0.0396
vn -0.8472 0.5298 -0.0396
vn -0.8472 0.5298 -0.0396
vn -0.7740 -0.2917 0.5620
vn -0.7740 -0.2917 0.5620
vn -0.7740 -0.2917 0.5620
vn -0.7740 -0.2917 0.5620
vn -0.2369 0.8370 -0.4932
vn -0.2369 0.8370 -0.4932
vn -0.2369 0.8370 -0.4932
vn -0.3740 0.8304 0.4131
vn -0.3740 0.8304 0.4131
vn -0.3740 0.8304 0.4131
vn -0.5454 0.8370 0.0444
vn -0.5454 0.8370 0.0444
vn -0.5454 0.8370 0.0444
vn -0.4775 0.8076 0.3460
vn -0.4775 0.8076 0.3460
vn -0.4775 0.8076 0.3460
vn -0.4775 0.8076 0.3460
vn -0.2886 0.9441 0.1595
vn -0.2886 0.9441 0.1595
vn -0.2886 0.9441 0.1595
vn -0.3951 0.8249 0.4042
vn -0.3951 0.8249 0.4042
vn -0.3951 0.8249 0.4042
vn -0.3870 0.9119 0.1364
vn -0.3870 0.9119 0.1364
vn -0.3870 0.9119 0.1364
vn -0.4135 0.8927 0.1790
vn -0.4135 0.8927 0.1790
vn -0.4135 0.8927 0.1790
vn 0.6576 -0.3622 -0.6606
vn 0.6576 -0.3622 -0.6606
vn 0.6576 -0.3622 -0.6606
vn 0.6576 -0.3622 -0.6606
vn -0.7822 -0.3718 0.4999
vn -0.7822 -0.3718 0.4999
vn -0.7822 -0.3718 0.4999
vn -0.7822 -0.3718 0.4999
vn -0.6925 -0.4433 0.5691
vn -0.6925 -0.4433 0.5691
vn -0.6925 -0.4433 0.5691
vn -0.6925 -0.4433 0.5691
vn -0.5069 -0.3858 0.7708
vn -0.5069 -0.3858 0.7708
vn -0.5069 -0.3858 0.7708
vn -0.5069 -0.3858 0.7708
vn 0.2510 -0.9623 0.1044
vn 0.2510 -0.9623 0.1044
vn 0.2510 -0.9623 0.1044
vn 0.2510 -0.9623 0.1044
vn -0.4541 0.1372 -0.8803
vn -0.4541 0.1372 -0.8803
vn -0.4541 0.1372 -0.8803
vn -0.7767 -0.5298 -0.3407
vn -0.7767 -0.5298 -0.3407
vn -0.7767 -0.5298 -0.3407
vn -0.5822 -0.4371 -0.6855
vn -0.5822 -0.4371 -0.6855
vn -0.5822 -0.4371 -0.6855
vn -0.6993 -0.5704 -0.4308
vn -0.6993 -0.5704 -0.4308
vn -0.6993 -0.5704 -0.4308
vn -0.6993 -0.5704 -0.4308
vn -0.7970 -0.3036 -0.5221
vn -0.7970 -0.3036 -0.5221
vn -0.7970 -0.3036 -0.5221
vn -0.7621 -0.5412 -0.3554
vn -0.7621 -0.5412 -0.3554
vn -0.7621 -0.5412 -0.3554
vn -0.7309 -0.3676 -0.5751
vn -0.7309 -0.3676 -0.5751
vn -0.7309 -0.3676 -0.5751
vn -0.7239 -0.4151 -0.5511
vn -0.7239 -0.4151 -0.5511
vn -0.7239 -0.4151 -0.5511
vn 0.3890 0.9165 0.0934
vn 0.3890 0.9165 0.0934
vn 0.3890 0.9165 0.0934
vn 0.3890 0.9165 0.0934
vn 0.3480 -0.9323 0.0982
vn 0.3480 -0.9323 0.0982
vn 0.3480 -0.9323 0.0982
vn 0.3480 -0.9323 0.0982
vn 0.3553 -0.9062 0.2294
vn 0.3553 -0.9062 0.2294
vn 0.3553 -0.9062 0.2294
vn 0.3553 -0.9062 0.2294
vn 0.1692 -0.8833 0.4373
vn 0.1692 -0.8833 0.4373
vn 0.1692 -0.8833 0.4373
vn 0.1692 -0.8833 0.4373
vn -0.6610 -0.0540 -0.7484
vn -0.6610 -0.0540 -0.7484
vn -0.6610 -0.0540 -0.7484
vn -0.2295 -0.6753 0.7009
vn -0.2295 -0.6753 0.7009
vn -0.2295 -0.6753 0.7009
vn 0.4898 -0.0035 -0.8718
vn 0.4898 -0.0035 -0.8718
vn 0.4898 -0.0035 -0.8718
vn 0.7965 0.5787 -0.1752
vn 0.7965 0.5787 -0.1752
vn 0.7965 0.5787 -0.1752
vn -0.1456 0.9711 -0.1892
vn -0.1456 0.9711 -0.1892
vn -0.1456 0.9711 -0.1892
vn 0.2255 0.9606 -0.1622
vn 0.2255 0.9606 -0.1622
vn 0.2255 0.9606 -0.1622
# 377 vertex normals

vt 1.4965 1.3794 0.0000
vt 1.5439 1.3794 0.0000
vt 1.5986 2.7305 0.0000
vt 1.6003 1.3794 0.0000
vt 1.6559 1.3794 0.0000
vt 1.7034 1.3794 0.0000
vt 1.4360 0.0283 0.0000
vt 1.5092 0.0283 0.0000
vt 1.5973 0.0283 0.0000
vt 1.6842 0.0283 0.0000
vt 1.7603 0.0283 0.0000
vt 1.4965 1.3794 0.0000
vt 1.5439 1.3794 0.0000
vt 1.5986 2.7305 0.0000
vt 1.6003 1.3794 0.0000
vt 1.6559 1.3794 0.0000
vt 1.7034 1.3794 0.0000
vt 1.4360 0.0283 0.0000
vt 1.5092 0.0283 0.0000
vt 1.5973 0.0283 0.0000
vt 1.6842 0.0283 0.0000
vt 1.7603 0.0283 0.0000
vt 0.8299 2.1406 0.0000
vt 0.8909 2.1411 0.0000
vt 0.8606 2.4906 0.0000
vt 0.9652 2.1409 0.0000
vt 0.9689 2.4905 0.0000
vt 1.0803 2.1403 0.0000
vt 1.1103 2.4900 0.0000
vt 1.0510 2.4903 0.0000
vt 0.8299 0.0562 0.0000
vt 0.8867 0.1023 0.0000
vt 0.8917 0.2451 0.0000
vt 0.8299 0.2457 0.0000
vt 0.9369 0.0849 0.0000
vt 0.9414 0.2449 0.0000
vt 0.9683 0.0443 0.0000
vt 0.9988 0.0648 0.0000
vt 0.9837 0.2447 0.0000
vt 1.0528 0.0839 0.0000
vt 1.1103 0.0447 0.0000
vt 1.1103 0.2444 0.0000
vt 1.0495 0.2444 0.0000
vt 0.8910 1.2116 0.0000
vt 0.8299 1.2113 0.0000
vt 1.1103 1.2103 0.0000
vt 1.0496 1.2110 0.0000
vt 0.9690 3.0347 0.0000
vt 0.8635 3.0334 0.0000
vt 1.1103 3.0348 0.0000
vt 1.0446 3.0313 0.0000
vt 0.9620 1.2113 0.0000
vt 0.7901 0.1156 0.0000
vt 0.6772 0.0704 0.0000
vt 0.7377 0.0672 0.0000
vt 0.7174 0.1927 0.0000
vt 0.6404 0.1140 0.0000
vt 0.6212 0.1713 0.0000
vt 0.6481 0.8335 0.0000
vt 0.7380 0.7865 0.0000
vt 0.7435 0.8940 0.0000
vt 0.8299 1.7906 0.0000
vt 0.8905 1.7915 0.0000
vt 0.9616 1.7913 0.0000
vt 1.0497 1.7909 0.0000
vt 1.1103 1.7898 0.0000
vt 0.9691 3.5789 0.0000
vt 0.8665 3.5761 0.0000
vt 1.1103 3.5797 0.0000
vt 1.0381 3.5722 0.0000
vt 1.4940 1.3794 0.0000
vt 1.5411 1.3794 0.0000
vt 1.5986 2.7305 0.0000
vt 1.5962 1.3794 0.0000
vt 1.6524 1.3794 0.0000
vt 1.6994 1.3794 0.0000
vt 1.4680 0.7039 0.0000
vt 1.5286 0.7039 0.0000
vt 1.5983 0.7039 0.0000
vt 1.6692 0.7039 0.0000
vt 1.7280 0.7039 0.0000
vt 1.4419 0.0283 0.0000
vt 1.5161 0.0283 0.0000
vt 1.6003 0.0283 0.0000
vt 1.6860 0.0283 0.0000
vt 1.7565 0.0283 0.0000
vt 0.4297 0.9998 0.0000
vt 0.3079 1.0012 0.0000
vt 0.2728 0.9288 0.0000
vt 0.4040 0.9404 0.0000
vt 0.6411 0.3135 0.0000
vt 0.7292 0.3526 0.0000
vt 0.5485 0.6089 0.0000
vt 0.4199 1.0014 0.0000
vt 0.3116 0.9301 0.0000
vt 0.4744 0.9488 0.0000
vt 0.5150 1.0022 0.0000
vt 0.6733 0.9971 0.0000
vt 0.6664 0.9636 0.0000
vt 0.1861 1.0025 0.0000
vt 0.1417 0.9172 0.0000
vt 0.7087 0.0015 0.0000
vt 0.8114 0.0012 0.0000
vt 0.6393 0.2635 0.0000
vt 0.6071 0.2570 0.0000
vt 0.5515 0.9984 0.0000
vt 0.5352 0.9520 0.0000
vt 0.6733 0.9971 0.0000
vt 0.6664 0.9636 0.0000
vt 0.1861 1.0025 0.0000
vt 0.1417 0.9172 0.0000
vt 0.6733 0.9971 0.0000
vt 0.1861 1.0025 0.0000
vt 0.1417 0.9172 0.0000
vt 0.6664 0.9636 0.0000
vt 0.4297 0.9998 0.0000
vt 0.3079 1.0012 0.0000
vt 0.2728 0.9288 0.0000
vt 0.4040 0.9404 0.0000
vt 0.6411 0.3135 0.0000
vt 0.7292 0.3526 0.0000
vt 0.5485 0.6089 0.0000
vt 0.3882 1.0012 0.0000
vt 0.3116 0.9301 0.0000
vt 0.4040 0.9404 0.0000
vt 0.5150 1.0022 0.0000
vt 0.4516 1.0017 0.0000
vt 0.4744 0.9488 0.0000
vt 0.6733 0.9971 0.0000
vt 0.6664 0.9636 0.0000
vt 0.1861 1.0025 0.0000
vt 0.1417 0.9172 0.0000
vt 0.7087 0.0015 0.0000
vt 0.8114 0.0012 0.0000
vt 0.6393 0.2635 0.0000
vt 0.6071 0.2570 0.0000
vt 0.5515 0.9984 0.0000
vt 0.5352 0.9520 0.0000
vt 0.6733 0.9971 0.0000
vt 0.6664 0.9636 0.0000
vt 0.1861 1.0025 0.0000
vt 0.1417 0.9172 0.0000
vt 0.4297 0.9998 0.0000
vt 0.3079 1.0012 0.0000
vt 0.2728 0.9288 0.0000
vt 0.4040 0.9404 0.0000
vt 0.6411 0.3135 0.0000
vt 0.7292 0.3526 0.0000
vt 0.5485 0.6089 0.0000
vt 0.3882 1.0012 0.0000
vt 0.3116 0.9301 0.0000
vt 0.4040 0.9404 0.0000
vt 0.5150 1.0022 0.0000
vt 0.4516 1.0017 0.0000
vt 0.4744 0.9488 0.0000
vt 0.6733 0.9971 0.0000
vt 0.6664 0.9636 0.0000
vt 0.1861 1.0025 0.0000
vt 0.1417 0.9172 0.0000
vt 0.7087 0.0015 0.0000
vt 0.8114 0.0012 0.0000
vt 0.6393 0.2635 0.0000
vt 0.6071 0.2570 0.0000
vt 0.5515 0.9984 0.0000
vt 0.5352 0.9520 0.0000
vt 0.6733 0.9971 0.0000
vt 0.6664 0.9636 0.0000
vt 0.1861 1.0025 0.0000
vt 0.1417 0.9172 0.0000
vt 0.6411 0.3135 0.0000
vt 0.7292 0.3526 0.0000
vt 0.5485 0.6089 0.0000
vt 0.6411 0.3135 0.0000
vt 0.7292 0.3526 0.0000
vt 0.5485 0.6089 0.0000
vt 0.0015 0.6732 0.0000
vt 0.1862 0.9842 0.0000
vt 0.0369 1.0011 0.0000
vt 0.0015 0.6732 0.0000
vt 0.1862 0.9842 0.0000
vt 0.0369 1.0011 0.0000
vt 0.6411 0.3135 0.0000
vt 0.7292 0.3526 0.0000
vt 0.5485 0.6089 0.0000
vt 0.0015 0.6732 0.0000
vt 0.1862 0.9842 0.0000
vt 0.0369 1.0011 0.0000
# 187 texture coords

g SM_FallenBranches01
usemtl M_pine01_fo
s off
f 6/1/1 7/2/2 5/3/3 
f 7/2/4 8/4/5 5/3/6 
f 8/4/7 9/5/8 5/3/9 
f 9/5/10 6/6/11 5/3/12 
f 1/7/13 2/8/14 7/2/15 6/1/16 
f 2/8/17 3/9/18 8/4/19 7/2/20 
f 3/9/21 4/10/22 9/5/23 8/4/24 
f 4/10/25 1/11/26 6/6/27 9/5/28 
f 15/12/29 16/13/30 14/14/31 
f 16/13/32 17/15/33 14/14/34 
f 17/15/35 18/16/36 14/14/37 
f 18/16/38 15/17/39 14/14/40 
f 10/18/41 11/19/42 16/13/43 15/12/44 
f 11/19/45 12/20/46 17/15/47 16/13/48 
f 12/20/49 13/21/50 18/16/51 17/15/52 
f 13/21/53 10/22/54 15/17/55 18/16/56 
f 42/23/57 40/24/58 33/25/59 
f 40/24/60 41/26/61 32/27/62 33/25/63 
f 42/28/64 33/29/65 34/30/66 
f 19/31/67 20/32/68 29/33/69 30/34/70 
f 20/32/71 37/35/72 38/36/73 29/33/74 
f 21/37/75 35/38/76 36/39/77 
f 22/40/78 19/41/79 30/42/80 31/43/81 
f 29/33/82 38/36/83 46/52/84 43/44/85 
f 30/34/86 29/33/87 43/44/88 44/45/89 
f 31/43/90 30/42/91 44/46/92 45/47/93 
f 33/25/94 32/27/95 47/48/96 48/49/97 
f 34/30/98 33/29/99 48/50/100 49/51/101 
f 35/38/102 22/40/103 31/43/104 36/39/105 
f 46/52/106 36/39/107 31/43/108 45/47/109 
f 32/27/110 41/26/111 42/28/112 34/30/113 
f 49/51/114 47/48/115 32/27/116 34/30/117 
f 37/35/118 21/37/119 36/39/120 38/36/121 
f 46/52/122 38/36/123 36/39/124 
f 20/53/125 21/54/126 37/55/127 
f 21/54/128 19/56/129 35/57/130 
f 35/57/131 19/56/132 22/58/133 
f 20/53/134 19/56/135 21/54/136 
f 23/59/137 24/60/138 25/61/139 
f 26/62/140 27/63/141 40/24/142 42/23/143 
f 27/63/144 39/64/145 41/26/146 40/24/147 
f 42/28/148 41/26/149 39/64/150 28/65/151 
f 28/65/152 26/66/153 42/28/154 
f 44/45/155 43/44/156 27/63/157 26/62/158 
f 45/47/159 44/46/160 26/66/161 28/65/162 
f 39/64/163 46/52/164 45/47/165 28/65/166 
f 43/44/167 46/52/168 39/64/169 27/63/170 
f 48/49/171 47/48/172 24/67/173 23/68/174 
f 49/51/175 48/50/176 23/69/177 25/70/178 
f 24/67/179 47/48/180 49/51/181 25/70/182 
f 55/71/183 56/72/184 54/73/185 
f 56/72/186 57/74/187 54/73/188 
f 57/74/189 58/75/190 54/73/191 
f 58/75/192 55/76/193 54/73/194 
f 59/77/195 60/78/196 56/72/197 55/71/198 
f 60/78/199 61/79/200 57/74/201 56/72/202 
f 61/79/203 62/80/204 58/75/205 57/74/206 
f 62/80/207 59/81/208 55/76/209 58/75/210 
f 50/82/211 51/83/212 60/78/213 59/77/214 
f 51/83/215 52/84/216 61/79/217 60/78/218 
f 52/84/219 53/85/220 62/80/221 61/79/222 
f 53/85/223 50/86/224 59/81/225 62/80/226 
usemtl M_pine01_tr
f 83/87/227 86/88/228 87/89/229 82/90/230 
f 69/91/231 67/92/232 68/93/233 
f 76/94/234 77/95/235 74/96/236 
f 75/97/237 76/94/238 74/96/239 
f 73/98/240 75/97/241 74/96/242 70/99/243 
f 76/94/244 71/100/245 77/95/246 
f 77/95/247 71/100/248 72/101/249 
f 81/102/250 78/103/251 79/104/252 80/105/253 
f 85/106/254 83/87/255 82/90/256 84/107/257 
f 66/108/258 85/106/259 84/107/260 63/109/261 
f 86/88/262 64/110/263 65/111/264 87/89/265 
f 91/112/266 89/113/267 90/114/268 88/115/269 
f 114/116/270 117/117/271 118/118/272 113/119/273 
f 98/120/274 96/121/275 97/122/276 
f 106/123/277 107/124/278 103/125/279 
f 105/126/280 108/127/281 104/128/282 
f 102/129/283 105/126/284 104/128/285 99/130/286 
f 106/123/287 100/131/288 107/124/289 
f 108/127/290 106/123/291 103/125/292 
f 108/127/293 103/125/294 104/128/295 
f 107/124/296 100/131/297 101/132/298 
f 112/133/299 109/134/300 110/135/301 111/136/302 
f 116/137/303 114/116/304 113/119/305 115/138/306 
f 95/139/307 116/137/308 115/138/309 92/140/310 
f 117/117/311 93/141/312 94/142/313 118/118/314 
f 141/143/315 144/144/316 145/145/317 140/146/318 
f 125/147/319 123/148/320 124/149/321 
f 133/150/322 134/151/323 130/152/324 
f 132/153/325 135/154/326 131/155/327 
f 129/156/328 132/153/329 131/155/330 126/157/331 
f 133/150/332 127/158/333 134/151/334 
f 135/154/335 133/150/336 130/152/337 
f 135/154/338 130/152/339 131/155/340 
f 134/151/341 127/158/342 128/159/343 
f 139/160/344 136/161/345 137/162/346 138/163/347 
f 143/164/348 141/143/349 140/146/350 142/165/351 
f 122/166/352 143/164/353 142/165/354 119/167/355 
f 144/144/356 120/168/357 121/169/358 145/145/359 
f 148/170/360 146/171/361 147/172/362 
f 151/173/363 149/174/364 150/175/365 
f 154/176/366 153/177/367 152/178/368 
f 157/179/369 156/180/370 155/181/371 
f 160/182/372 158/183/373 159/184/374 
f 163/185/375 162/186/376 161/187/377 
# 59 polygons - 47 triangles

