# 3ds Max Wavefront OBJ Exporter v0.97b - (c)2007 guruware
# File Created: 22.09.2017 11:29:24

mtllib SM_PineDead03_lod3.mtl

#
# object SM_PineDead03_lod3
#

v  -1.0041 391.3596 58.4787
v  -1.0041 396.7314 -64.0836
v  -1.0041 -7.0320 -51.7863
v  -1.0041 -23.3915 58.4787
v  58.3958 391.3596 -0.9212
v  -64.1665 396.7314 -0.9212
v  -51.8692 -7.0320 -0.9212
v  58.3957 -23.3915 -0.9212
# 8 vertices

vn -1.0000 0.0000 -0.0000
vn -1.0000 0.0000 -0.0000
vn -1.0000 0.0000 -0.0000
vn -1.0000 0.0000 -0.0000
vn 0.0000 -0.0000 1.0000
vn 0.0000 -0.0000 1.0000
vn 0.0000 -0.0000 1.0000
vn 0.0000 -0.0000 1.0000
# 8 vertex normals

vt 0.8527 0.4842 0.0000
vt 0.9936 0.4633 0.0000
vt 0.9936 0.9931 0.0000
vt 0.8370 1.0000 0.0000
vt 0.8527 0.4842 0.0000
vt 0.9936 0.4633 0.0000
vt 0.9936 0.9931 0.0000
vt 0.8370 1.0000 0.0000
# 8 texture coords

g SM_PineDead03_lod3
usemtl M_pine01_billboard
s off
f 3/1/1 4/2/2 1/3/3 2/4/4 
f 7/5/5 8/6/6 5/7/7 6/8/8 
# 2 polygons

