# 3ds Max Wavefront OBJ Exporter v0.97b - (c)2007 guruware
# File Created: 22.09.2017 11:28:17

mtllib SM_PineDead02_lod3.mtl

#
# object SM_PineDead02_lod3
#

v  1.6164 -41.3290 96.6478
v  -8.6086 885.0061 106.4866
v  -8.6084 885.0061 -85.6546
v  1.6164 -41.3290 -95.4934
v  97.1518 -41.3290 1.1123
v  97.1518 885.0061 1.1125
v  -94.9894 885.0061 1.1124
v  -94.9895 -41.3290 1.1123
# 8 vertices

vn -0.9999 -0.0110 -0.0000
vn -0.9999 -0.0110 -0.0000
vn -0.9999 -0.0110 -0.0000
vn -0.9999 -0.0110 -0.0000
vn -0.0000 -0.0000 1.0000
vn -0.0000 -0.0000 1.0000
vn -0.0000 -0.0000 1.0000
vn -0.0000 -0.0000 1.0000
# 8 vertex normals

vt 0.7060 0.4242 0.0000
vt 0.8255 0.4242 0.0000
vt 0.8255 1.0000 0.0000
vt 0.7060 1.0000 0.0000
vt 0.7060 0.4242 0.0000
vt 0.8255 0.4242 0.0000
vt 0.8255 1.0000 0.0000
vt 0.7060 1.0000 0.0000
# 8 texture coords

g SM_PineDead02_lod3
usemtl M_pine01_billboard
s off
f 4/1/1 1/2/2 2/3/3 3/4/4 
f 8/5/5 5/6/6 6/7/7 7/8/8 
# 2 polygons

