# 3ds Max Wavefront OBJ Exporter v0.97b - (c)2007 guruware
# File Created: 22.09.2017 11:57:10

mtllib SM_Pine03_lod3.mtl

#
# object SM_Pine03_lod3
#

v  -1.1133 -51.0622 124.4694
v  -1.1132 857.1662 124.4695
v  -1.1132 857.1662 -117.8360
v  -1.1133 -51.0622 -117.8360
v  120.9995 -51.0622 2.3567
v  120.9995 857.1662 2.3567
v  -121.3059 857.1662 2.3567
v  -121.3059 -51.0622 2.3567
# 8 vertices

vn -1.0000 0.0000 0.0000
vn -1.0000 0.0000 0.0000
vn -1.0000 0.0000 0.0000
vn -1.0000 0.0000 0.0000
vn 0.0000 0.0000 1.0000
vn 0.0000 0.0000 1.0000
vn 0.0000 0.0000 1.0000
vn 0.0000 0.0000 1.0000
# 8 vertex normals

vt 0.3503 0.4197 0.0000
vt 0.5043 0.4197 0.0000
vt 0.5043 0.9969 0.0000
vt 0.3503 0.9969 0.0000
vt 0.3503 0.4197 0.0000
vt 0.5043 0.4197 0.0000
vt 0.5043 0.9969 0.0000
vt 0.3503 0.9969 0.0000
# 8 texture coords

g SM_Pine03_lod3
usemtl M_pine01_billboard
s off
f 4/1/1 1/2/2 2/3/3 3/4/4 
f 8/5/5 5/6/6 6/7/7 7/8/8 
# 2 polygons

