# 3ds Max Wavefront OBJ Exporter v0.97b - (c)2007 guruware
# File Created: 22.09.2017 11:56:41

mtllib SM_Pine02_lod3.mtl

#
# object SM_Pine02_lod3
#

v  1.5154 -50.6777 147.0384
v  1.5154 -50.6777 -146.8693
v  1.5153 969.6078 147.0384
v  1.5153 914.9191 -146.8693
v  151.3947 -50.6777 -2.8408
v  -142.5130 -50.6777 -2.8408
v  151.3947 969.6078 -2.8406
v  -142.5130 914.9191 -2.8406
# 8 vertices

vn -1.0000 -0.0000 0.0000
vn -1.0000 -0.0000 0.0000
vn -1.0000 -0.0000 0.0000
vn -1.0000 -0.0000 0.0000
vn 0.0000 -0.0000 1.0000
vn 0.0000 -0.0000 1.0000
vn 0.0000 -0.0000 1.0000
vn 0.0000 -0.0000 1.0000
# 8 vertex normals

vt 0.1606 0.4075 0.0000
vt 0.3313 0.4393 0.0000
vt 0.3313 1.0000 0.0000
vt 0.1606 1.0000 0.0000
vt 0.1606 0.4075 0.0000
vt 0.3313 0.4393 0.0000
vt 0.3313 1.0000 0.0000
vt 0.1606 1.0000 0.0000
# 8 texture coords

g SM_Pine02_lod3
usemtl M_pine01_billboard
s off
f 3/1/1 4/2/2 2/3/3 1/4/4 
f 7/5/5 8/6/6 6/7/7 5/8/8 
# 2 polygons

