# 3ds Max Wavefront OBJ Exporter v0.97b - (c)2007 guruware
# File Created: 22.09.2017 11:33:04

mtllib SM_PineMedium01_lod3.mtl

#
# object SM_PineMedium01_lod3
#

v  22.2279 623.2010 -137.9533
v  3.4115 -6.7735 -76.6600
v  3.4117 -13.9481 106.0522
v  22.2279 623.2010 135.7479
v  -118.3374 623.2010 0.7079
v  -73.9562 -6.7735 0.7081
v  108.7560 -13.9481 0.7079
v  155.3636 623.2010 0.7079
# 8 vertices

vn -0.9996 0.0297 0.0005
vn -0.9996 0.0297 0.0005
vn -0.9996 0.0297 0.0005
vn -0.9996 0.0297 0.0005
vn 0.0000 0.0000 1.0000
vn 0.0000 0.0000 1.0000
vn 0.0000 0.0000 1.0000
vn 0.0000 0.0000 1.0000
# 8 vertex normals

vt 0.4210 0.0084 0.0000
vt 0.6302 0.0084 0.0000
vt 0.5963 0.4900 0.0000
vt 0.4566 0.4955 0.0000
vt 0.4210 0.0084 0.0000
vt 0.6302 0.0084 0.0000
vt 0.5963 0.4900 0.0000
vt 0.4566 0.4955 0.0000
# 8 texture coords

g SM_PineMedium01_lod3
usemtl M_pine01_billboard
s off
f 4/1/1 1/2/2 2/3/3 3/4/4 
f 8/5/5 5/6/6 6/7/7 7/8/8 
# 2 polygons

