# 3ds Max Wavefront OBJ Exporter v0.97b - (c)2007 guruware
# File Created: 22.09.2017 11:27:19

mtllib SM_PineDead01_lod3.mtl

#
# object SM_PineDead01_lod3
#

v  1.4484 -22.6735 93.4669
v  1.4484 -22.6735 -108.6970
v  1.4484 812.9070 93.4670
v  1.4484 812.9070 -108.6968
v  94.4134 -22.6735 0.5019
v  -107.7505 -22.6735 0.5019
v  94.4134 812.9070 0.5020
v  -107.7504 812.9070 0.5020
# 8 vertices

vn -1.0000 0.0000 -0.0000
vn -1.0000 0.0000 -0.0000
vn -1.0000 0.0000 -0.0000
vn -1.0000 0.0000 -0.0000
vn 0.0000 -0.0000 1.0000
vn 0.0000 -0.0000 1.0000
vn 0.0000 -0.0000 1.0000
vn 0.0000 -0.0000 1.0000
# 8 vertex normals

vt 0.5578 0.4069 0.0000
vt 0.6945 0.4069 0.0000
vt 0.6945 0.9926 0.0000
vt 0.5528 0.9926 0.0000
vt 0.5578 0.4069 0.0000
vt 0.6945 0.4069 0.0000
vt 0.6945 0.9926 0.0000
vt 0.5528 0.9926 0.0000
# 8 texture coords

g SM_PineDead01_lod3
usemtl M_pine01_billboard
s off
f 3/1/1 4/2/2 2/3/3 1/4/4 
f 7/5/5 8/6/6 6/7/7 5/8/8 
# 2 polygons

